<svg 
  height='100px' 
  width='100px' 
  background-color='white' 
  fill="yellow" 
  xmlns="http://www.w3.org/2000/svg" 
  xmlns:xlink="http://www.w3.org/1999/xlink" 
  version="1.1" x="0px" y="0px" viewBox="0 0 100 100" style="enable-background:new 0 0 100 100;" xml:space="preserve">
  <circle cx="50" cy="50" r="45" stroke="gray" stroke-width="1" fill="gray" />
  <g><path d="M50,13.3c20.3,0,36.7,16.5,36.7,36.7S70.3,86.7,50,86.7c-20.3,0-36.7-16.5-36.7-36.7S29.7,13.3,50,13.3 M50,9.3   C27.5,9.3,9.3,27.5,9.3,50S27.5,90.7,50,90.7S90.7,72.5,90.7,50S72.5,9.3,50,9.3L50,9.3z"></path></g>
  <path d="M50,69.4c-1.6,0-2.9-1.3-2.9-2.9V47.5c0-1.6,1.3-2.9,2.9-2.9s2.9,1.3,2.9,2.9v19.1C52.9,68.1,51.6,69.4,50,69.4z"></path>
  <path d="M50,36.3c-1.6,0-2.9-1.3-2.9-2.9s1.3-2.9,2.9-2.9s2.9,1.3,2.9,2.9S51.6,36.3,50,36.3z"></path></svg>